HIERARCHY
ROOT Hips
{
 OFFSET 0.000000 0.000000 0.000000
 CHANNELS 6 Xposition Yposition Zposition Yrotation Xrotation Zrotation
 JOINT Chest
 {
  OFFSET 0.000000 9.585900 0.002600
  CHANNELS 3 Yrotation Xrotation Zrotation
  JOINT Chest2
  {
   OFFSET 0.000000 9.601200 -0.005300
   CHANNELS 3 Yrotation Xrotation Zrotation
   JOINT Chest3
   {
    OFFSET 0.000000 9.561800 0.000000
    CHANNELS 3 Yrotation Xrotation Zrotation
    JOINT Chest4
    {
     OFFSET 0.000000 9.552100 0.000000
     CHANNELS 3 Yrotation Xrotation Zrotation
     JOINT Neck
     {
      OFFSET 0.000000 14.453000 0.000000
      CHANNELS 3 Yrotation Xrotation Zrotation
      JOINT Head
      {
       OFFSET 0.000000 8.936500 -0.011300
       CHANNELS 3 Yrotation Xrotation Zrotation
       End Site
       {
        OFFSET 0.000000 17.073600 -0.006000
       }
      }
     }
     JOINT RightCollar
     {
      OFFSET -2.921100 9.558500 0.000000
      CHANNELS 3 Yrotation Xrotation Zrotation
      JOINT RightShoulder
      {
       OFFSET -13.519700 0.000000 0.000000
       CHANNELS 3 Yrotation Xrotation Zrotation
       JOINT RightElbow
       {
        OFFSET 0.000000 -29.696600 0.000000
        CHANNELS 3 Yrotation Xrotation Zrotation
        JOINT RightWrist
        {
         OFFSET 0.000000 -24.004700 0.000000
         CHANNELS 3 Yrotation Xrotation Zrotation
         End Site
         {
          OFFSET 0.000000 -17.728500 0.000000
         }
        }
       }
      }
     }
     JOINT LeftCollar
     {
      OFFSET 2.921100 9.558500 0.000000
      CHANNELS 3 Yrotation Xrotation Zrotation
      JOINT LeftShoulder
      {
       OFFSET 13.519700 0.000000 0.000000
       CHANNELS 3 Yrotation Xrotation Zrotation
       JOINT LeftElbow
       {
        OFFSET 0.000000 -29.696600 0.000000
        CHANNELS 3 Yrotation Xrotation Zrotation
        JOINT LeftWrist
        {
         OFFSET 0.000000 -24.004700 0.000000
         CHANNELS 3 Yrotation Xrotation Zrotation
         End Site
         {
          OFFSET 0.000000 -17.728500 0.000000
         }
        }
       }
      }
     }
    }
   }
  }
 }
 JOINT RightHip
 {
  OFFSET -7.771700 -0.012900 -0.001300
  CHANNELS 3 Yrotation Xrotation Zrotation
  JOINT RightKnee
  {
   OFFSET 0.000000 -40.869800 0.001200
   CHANNELS 3 Yrotation Xrotation Zrotation
   JOINT RightAnkle
   {
    OFFSET 0.000000 -39.717900 0.002100
    CHANNELS 3 Yrotation Xrotation Zrotation
    JOINT RightToe
    {
     OFFSET 0.000000 -4.965400 11.033500
     CHANNELS 3 Yrotation Xrotation Zrotation
     End Site
     {
      OFFSET 0.000000 -1.423100 5.872300
     }
    }
   }
  }
 }
 JOINT LeftHip
 {
  OFFSET 7.771700 -0.012900 -0.001300
  CHANNELS 3 Yrotation Xrotation Zrotation
  JOINT LeftKnee
  {
   OFFSET 0.000000 -40.869800 0.001200
   CHANNELS 3 Yrotation Xrotation Zrotation
   JOINT LeftAnkle
   {
    OFFSET 0.000000 -39.717900 0.002100
    CHANNELS 3 Yrotation Xrotation Zrotation
    JOINT LeftToe
    {
     OFFSET 0.000000 -4.965400 11.033500
     CHANNELS 3 Yrotation Xrotation Zrotation
     End Site
     {
      OFFSET 0.000000 -1.423100 5.872300
     }
    }
   }
  }
 }
}
MOTION
Frames: 6
Frame Time: 0.008333
-30.549624 58.264498 92.406483 -174.021294 -45.576004 5.945595 -12.099391 20.714187 -3.349007 -1.682838 3.146351 -0.218125 -2.720137 5.053514 -0.421209 -9.837835 17.401326 -2.564293 -1.334956 29.334169 -6.362041 -1.231069 18.754102 -11.055098 20.239270 5.653732 -9.479594 20.892908 -32.252725 -13.390876 -156.591269 -42.015045 -171.480949 -4.516344 1.183532 -50.888080 -2.503372 -2.832244 -10.003027 -11.007740 -35.169858 -4.141481 110.298812 -54.559559 -149.722630 -6.432056 -11.357362 31.733990 9.294593 -25.877605 -15.778892 10.868413 78.941589 16.495651 5.290330 -3.198978 2.744619 0.020340 0.211274 0.166476 -15.476566 -31.378623 -15.606742 31.615993 71.477474 24.741980 -22.116808 -1.384421 -7.479370 -0.120706 -0.145496 0.170134
-30.553093 58.266023 92.402054 -173.977808 -45.563296 5.971418 -12.155417 20.709336 -3.333632 -1.685041 3.133666 -0.260561 -2.733225 5.070663 -0.387377 -9.864788 17.403207 -2.551710 -1.313689 29.147188 -6.432172 -1.166456 18.412060 -11.183051 20.275795 5.659225 -9.531174 20.886692 -32.250993 -13.405921 -156.666183 -42.011195 -171.439180 -4.491108 1.182156 -50.747995 -2.467220 -2.863441 -10.066401 -10.989160 -35.162957 -4.147321 110.333833 -54.553336 -149.768274 -6.466709 -11.315029 31.607572 9.307441 -25.880880 -15.805119 10.843394 78.966545 16.441386 5.247355 -3.244726 2.667166 0.026477 0.223319 0.262489 -15.471000 -31.394262 -15.606588 31.488330 71.487766 24.562760 -22.145643 -1.385193 -7.496806 -0.102406 -0.145288 0.185895
-30.553862 58.267517 92.396364 -173.957085 -45.554514 5.994207 -12.190705 20.707005 -3.316486 -1.694562 3.141281 -0.242871 -2.743305 5.067987 -0.398562 -9.894674 17.400944 -2.539617 -1.297867 28.975498 -6.509036 -1.111247 18.098139 -11.322262 20.320038 5.666082 -9.579945 20.877372 -32.243543 -13.419600 -156.846789 -41.941338 -171.382871 -4.556608 1.223706 -50.567958 -2.414955 -2.872074 -10.102154 -10.965550 -35.130370 -4.130724 110.465690 -54.530315 -149.906487 -6.440348 -11.290814 31.468902 9.333404 -25.882185 -15.815516 10.850807 78.986363 16.425934 5.206722 -3.274194 2.649778 0.016885 0.213271 0.259365 -15.464429 -31.404360 -15.604967 31.447784 71.491797 24.475649 -22.161908 -1.387397 -7.504683 -0.073562 -0.165321 0.151698
-30.559004 58.269668 92.390529 -173.951108 -45.550824 6.051280 -12.224266 20.701203 -3.340254 -1.706676 3.150820 -0.212267 -2.753384 5.064327 -0.409875 -9.926328 17.396063 -2.529298 -1.288044 28.820446 -6.591587 -1.066597 17.814947 -11.470710 20.371251 5.673169 -9.624371 20.866507 -32.234567 -13.409237 -156.983250 -41.906750 -171.304589 -4.578251 1.229359 -50.432792 -2.365687 -2.882871 -10.132501 -10.959222 -35.116903 -4.127905 110.509399 -54.475204 -149.952307 -6.487188 -11.238410 31.328731 9.382457 -25.874409 -15.855081 10.875627 79.006407 16.427388 5.172848 -3.302111 2.635583 0.013827 0.195342 0.218528 -15.433875 -31.418500 -15.649591 31.572440 71.470027 24.529008 -22.170456 -1.361381 -7.468194 -0.138628 -0.186825 0.112498
-30.561110 58.271135 92.383995 -173.933493 -45.546855 6.079809 -12.261996 20.697393 -3.332399 -1.713255 3.151485 -0.210383 -2.760856 5.062618 -0.420717 -9.941317 17.386511 -2.539744 -1.277907 28.693204 -6.635888 -1.034739 17.566515 -11.624025 20.411735 5.676168 -9.624004 20.855279 -32.231600 -13.397257 -157.047160 -41.915199 -171.243925 -4.578254 1.224400 -50.372443 -2.340436 -2.887879 -10.130884 -10.963392 -35.106795 -4.120377 110.590106 -54.475045 -150.025309 -6.493383 -11.211520 31.199893 9.411834 -25.871800 -15.872236 10.891042 79.027877 16.416789 5.145977 -3.327883 2.636372 0.019732 0.183704 0.190079 -15.419216 -31.421201 -15.656735 31.557669 71.467871 24.470830 -22.210315 -1.366682 -7.454632 -0.142662 -0.191209 0.091536
-30.564123 58.271744 92.378105 -173.905657 -45.537059 6.106308 -12.307324 20.684881 -3.317932 -1.716255 3.147885 -0.222147 -2.761962 5.056407 -0.458375 -9.970273 17.394227 -2.474098 -1.285723 28.571560 -6.745401 -1.019083 17.355295 -11.778585 20.444436 5.692034 -9.692910 20.860760 -32.268374 -13.332094 -157.130626 -41.970219 -171.154687 -4.534128 1.175970 -50.238277 -2.301968 -2.903225 -10.178410 -10.980632 -35.101447 -4.107557 110.708793 -54.518617 -150.162203 -6.473584 -11.207010 31.109008 9.430716 -25.876252 -15.902450 10.956573 79.048666 16.453765 5.116254 -3.355679 2.659173 0.021149 0.178571 0.150760 -15.381078 -31.419382 -15.655381 31.448656 71.473470 24.332811 -22.295036 -1.380227 -7.446699 -0.104267 -0.189241 0.084945
